<?xml version="1.0" encoding="UTF-8" standalone="no"?>
<!-- Created with Inkscape (http://www.inkscape.org/) -->

<svg
   width="21.166668mm"
   height="21.166767mm"
   viewBox="0 0 21.166667 21.166768"
   version="1.1"
   id="svg1"
   inkscape:version="1.2.2 (b0a8486541, 2022-12-01)"
   sodipodi:docname="favicon.svg"
   xmlns:inkscape="http://www.inkscape.org/namespaces/inkscape"
   xmlns:sodipodi="http://sodipodi.sourceforge.net/DTD/sodipodi-0.dtd"
   xmlns="http://www.w3.org/2000/svg"
   xmlns:svg="http://www.w3.org/2000/svg">
  <sodipodi:namedview
     id="namedview1"
     pagecolor="#505050"
     bordercolor="#eeeeee"
     borderopacity="1"
     inkscape:showpageshadow="0"
     inkscape:pageopacity="0"
     inkscape:pagecheckerboard="0"
     inkscape:deskcolor="#505050"
     inkscape:document-units="mm"
     inkscape:zoom="5.0998985"
     inkscape:cx="19.902357"
     inkscape:cy="38.334096"
     inkscape:window-width="1280"
     inkscape:window-height="732"
     inkscape:window-x="0"
     inkscape:window-y="0"
     inkscape:window-maximized="1"
     inkscape:current-layer="layer1"
     showgrid="false" />
  <defs
     id="defs1" />
  <g
     inkscape:label="Layer 1"
     inkscape:groupmode="layer"
     id="layer1"
     transform="translate(-15.547888,-94.200452)">
    <path
       id="path6928"
       style="fill:#202020;fill-opacity:1;fill-rule:evenodd;stroke-width:0.198056;stroke-dasharray:0.792222, 0.39611;paint-order:stroke fill markers"
       d="m 26.12421,95.243154 c -0.0072,10e-6 -0.01482,0.002 -0.02911,0.007 -3.410491,1.38463 -5.031052,4.895176 -5.031052,4.895176 -0.155335,-0.532556 -0.306686,-1.066516 -0.464483,-1.598186 -1.33979,1.600336 -1.923559,3.808796 -2.160695,5.715996 -0.425284,-0.31299 -0.850546,-0.62602 -1.27583,-0.93901 0.003,3.18021 1.149129,6.43814 3.466828,8.66917 -1.004527,-2.28118 -1.032861,-4.97524 -0.114546,-7.28817 -0.24767,2.47186 0.347973,5.52505 2.476424,6.95776 -1.497694,-2.53175 -1.514351,-5.90324 -0.02879,-8.44492 0.750426,-1.31505 2.283949,-2.38488 3.843683,-1.99935 1.598636,0.39454 2.64277,1.88563 3.151412,3.36723 0.774644,2.28791 0.6044,4.92034 -0.612092,7.02435 0.867978,-2.37666 0.6977,-5.29572 -0.906108,-7.33066 -0.806269,-1.05445 -2.298334,-1.66709 -3.588974,-0.76646 -1.745286,1.38992 -2.010208,3.99366 -1.304883,5.98969 0.609673,-1.77202 3.114458,-2.63611 4.459052,-1.10297 -2.345449,-0.57309 -4.025853,2.24755 -3.851544,4.31431 l 0.0081,0.27616 0.162082,1.10182 c 2.697727,0.72584 5.651277,-0.30468 7.540487,-2.30611 2.186937,-2.24132 3.249823,-5.35613 3.235082,-8.4554 -0.425285,0.313 -0.850548,0.62602 -1.275831,0.93902 -0.237136,-1.90721 -0.820905,-4.11567 -2.160695,-5.716006 -0.157797,0.53167 -0.309148,1.065643 -0.464483,1.598196 0,0 -1.620564,-3.510556 -5.031052,-4.895176 -5.03e-4,-1.8e-4 -7.06e-4,-1.5e-4 -0.0011,-2.7e-4 -7.4e-5,-1e-5 -1.01e-4,-1e-5 -2.02e-4,-5e-5 -0.0049,-0.002 -0.0097,-0.004 -0.01458,-0.006 -0.0129,-0.005 -0.01979,-0.007 -0.02702,-0.007 z m -3.250805,15.967256 c -9.97e-4,0.002 0.01701,0.0464 0,0 z"
       sodipodi:nodetypes="scccccccccccccccccccccccccsccscc" />
  </g>
</svg>
